<mxfile host="app.diagrams.net" modified="2023-11-06T11:43:11.116Z" agent="Mozilla/5.0 (Windows NT 10.0; Win64; x64; rv:109.0) Gecko/20100101 Firefox/115.0" etag="O5hs5u_x5FHKSf0ewCaL" version="22.0.8" type="device">
  <diagram name="Page-1" id="vvDC1Us-YULZ6MWQphX9">
    <mxGraphModel dx="2586" dy="1469" grid="1" gridSize="10" guides="1" tooltips="1" connect="1" arrows="1" fold="1" page="1" pageScale="1" pageWidth="850" pageHeight="1100" math="0" shadow="0">
      <root>
        <mxCell id="0" />
        <mxCell id="1" parent="0" />
        <mxCell id="RSrO0qOCgvpYjwJMyOpI-1" value="" style="endArrow=none;html=1;rounded=0;strokeWidth=3;" parent="1" source="RSrO0qOCgvpYjwJMyOpI-3" edge="1">
          <mxGeometry width="50" height="50" relative="1" as="geometry">
            <mxPoint x="120" y="160" as="sourcePoint" />
            <mxPoint x="640" y="160" as="targetPoint" />
          </mxGeometry>
        </mxCell>
        <mxCell id="RSrO0qOCgvpYjwJMyOpI-2" value="" style="shape=flexArrow;endArrow=classic;html=1;rounded=0;" parent="1" edge="1">
          <mxGeometry width="50" height="50" relative="1" as="geometry">
            <mxPoint x="170" y="160" as="sourcePoint" />
            <mxPoint x="170" y="110" as="targetPoint" />
          </mxGeometry>
        </mxCell>
        <mxCell id="RSrO0qOCgvpYjwJMyOpI-4" value="" style="endArrow=none;html=1;rounded=0;strokeWidth=3;" parent="1" target="RSrO0qOCgvpYjwJMyOpI-3" edge="1">
          <mxGeometry width="50" height="50" relative="1" as="geometry">
            <mxPoint x="120" y="160" as="sourcePoint" />
            <mxPoint x="640" y="160" as="targetPoint" />
          </mxGeometry>
        </mxCell>
        <mxCell id="RSrO0qOCgvpYjwJMyOpI-3" value="" style="ellipse;whiteSpace=wrap;html=1;" parent="1" vertex="1">
          <mxGeometry x="355" y="100" width="10" height="120" as="geometry" />
        </mxCell>
        <mxCell id="RSrO0qOCgvpYjwJMyOpI-5" value="" style="endArrow=none;html=1;rounded=0;" parent="1" edge="1">
          <mxGeometry width="50" height="50" relative="1" as="geometry">
            <mxPoint x="170" y="110" as="sourcePoint" />
            <mxPoint x="360" y="160" as="targetPoint" />
          </mxGeometry>
        </mxCell>
        <mxCell id="RSrO0qOCgvpYjwJMyOpI-6" value="" style="endArrow=none;html=1;rounded=0;entryX=0.471;entryY=0.094;entryDx=0;entryDy=0;entryPerimeter=0;" parent="1" target="RSrO0qOCgvpYjwJMyOpI-3" edge="1">
          <mxGeometry width="50" height="50" relative="1" as="geometry">
            <mxPoint x="170" y="110" as="sourcePoint" />
            <mxPoint x="450" y="150" as="targetPoint" />
          </mxGeometry>
        </mxCell>
        <mxCell id="RSrO0qOCgvpYjwJMyOpI-7" value="" style="shape=flexArrow;endArrow=classic;html=1;rounded=0;endWidth=10.857142857142858;endSize=6.045714285714285;" parent="1" edge="1">
          <mxGeometry width="50" height="50" relative="1" as="geometry">
            <mxPoint x="470" y="160" as="sourcePoint" />
            <mxPoint x="470" y="190" as="targetPoint" />
          </mxGeometry>
        </mxCell>
        <mxCell id="RSrO0qOCgvpYjwJMyOpI-8" value="" style="endArrow=none;html=1;rounded=0;" parent="1" edge="1">
          <mxGeometry width="50" height="50" relative="1" as="geometry">
            <mxPoint x="360" y="160" as="sourcePoint" />
            <mxPoint x="470" y="190" as="targetPoint" />
          </mxGeometry>
        </mxCell>
        <mxCell id="RSrO0qOCgvpYjwJMyOpI-9" value="" style="endArrow=none;html=1;rounded=0;exitX=0.479;exitY=0.093;exitDx=0;exitDy=0;exitPerimeter=0;" parent="1" source="RSrO0qOCgvpYjwJMyOpI-3" edge="1">
          <mxGeometry width="50" height="50" relative="1" as="geometry">
            <mxPoint x="400" y="180" as="sourcePoint" />
            <mxPoint x="470" y="190" as="targetPoint" />
          </mxGeometry>
        </mxCell>
        <mxCell id="RSrO0qOCgvpYjwJMyOpI-12" value="H" style="text;html=1;strokeColor=none;fillColor=none;align=center;verticalAlign=middle;whiteSpace=wrap;rounded=0;" parent="1" vertex="1">
          <mxGeometry x="110" y="120" width="60" height="30" as="geometry" />
        </mxCell>
        <mxCell id="RSrO0qOCgvpYjwJMyOpI-14" value="h" style="text;html=1;strokeColor=none;fillColor=none;align=center;verticalAlign=middle;whiteSpace=wrap;rounded=0;" parent="1" vertex="1">
          <mxGeometry x="469" y="161" width="60" height="30" as="geometry" />
        </mxCell>
        <mxCell id="RSrO0qOCgvpYjwJMyOpI-16" value="" style="endArrow=none;html=1;rounded=0;" parent="1" edge="1">
          <mxGeometry width="50" height="50" relative="1" as="geometry">
            <mxPoint x="150" y="160" as="sourcePoint" />
            <mxPoint x="150" y="110" as="targetPoint" />
          </mxGeometry>
        </mxCell>
        <mxCell id="RSrO0qOCgvpYjwJMyOpI-17" value="" style="endArrow=none;html=1;rounded=0;" parent="1" edge="1">
          <mxGeometry width="50" height="50" relative="1" as="geometry">
            <mxPoint x="490" y="190" as="sourcePoint" />
            <mxPoint x="490" y="160" as="targetPoint" />
          </mxGeometry>
        </mxCell>
        <mxCell id="RSrO0qOCgvpYjwJMyOpI-18" value="cam" style="text;html=1;strokeColor=none;fillColor=none;align=center;verticalAlign=middle;whiteSpace=wrap;rounded=0;" parent="1" vertex="1">
          <mxGeometry x="330" y="131" width="60" height="30" as="geometry" />
        </mxCell>
        <mxCell id="RSrO0qOCgvpYjwJMyOpI-19" value="" style="endArrow=none;html=1;rounded=0;" parent="1" edge="1">
          <mxGeometry width="50" height="50" relative="1" as="geometry">
            <mxPoint x="170" y="171" as="sourcePoint" />
            <mxPoint x="350" y="171" as="targetPoint" />
          </mxGeometry>
        </mxCell>
        <mxCell id="RSrO0qOCgvpYjwJMyOpI-20" value="d" style="text;html=1;strokeColor=none;fillColor=none;align=center;verticalAlign=middle;whiteSpace=wrap;rounded=0;" parent="1" vertex="1">
          <mxGeometry x="230" y="161" width="60" height="30" as="geometry" />
        </mxCell>
        <mxCell id="RSrO0qOCgvpYjwJMyOpI-21" value="" style="endArrow=none;html=1;rounded=0;" parent="1" edge="1">
          <mxGeometry width="50" height="50" relative="1" as="geometry">
            <mxPoint x="460" y="170" as="sourcePoint" />
            <mxPoint x="370" y="170" as="targetPoint" />
          </mxGeometry>
        </mxCell>
        <mxCell id="RSrO0qOCgvpYjwJMyOpI-22" value="m" style="text;html=1;strokeColor=none;fillColor=none;align=center;verticalAlign=middle;whiteSpace=wrap;rounded=0;" parent="1" vertex="1">
          <mxGeometry x="390" y="161" width="60" height="30" as="geometry" />
        </mxCell>
        <mxCell id="RSrO0qOCgvpYjwJMyOpI-25" value="" style="endArrow=none;html=1;rounded=0;" parent="1" edge="1">
          <mxGeometry width="50" height="50" relative="1" as="geometry">
            <mxPoint x="425" y="149.5" as="sourcePoint" />
            <mxPoint x="425" y="170.5" as="targetPoint" />
          </mxGeometry>
        </mxCell>
        <mxCell id="RSrO0qOCgvpYjwJMyOpI-26" value="" style="endArrow=none;html=1;rounded=0;" parent="1" edge="1">
          <mxGeometry width="50" height="50" relative="1" as="geometry">
            <mxPoint x="550" y="150" as="sourcePoint" />
            <mxPoint x="550" y="171" as="targetPoint" />
          </mxGeometry>
        </mxCell>
        <mxCell id="RSrO0qOCgvpYjwJMyOpI-27" value="f" style="text;html=1;strokeColor=none;fillColor=none;align=center;verticalAlign=middle;whiteSpace=wrap;rounded=0;" parent="1" vertex="1">
          <mxGeometry x="395" y="120" width="60" height="30" as="geometry" />
        </mxCell>
        <mxCell id="RSrO0qOCgvpYjwJMyOpI-28" value="2f" style="text;html=1;strokeColor=none;fillColor=none;align=center;verticalAlign=middle;whiteSpace=wrap;rounded=0;" parent="1" vertex="1">
          <mxGeometry x="520" y="120" width="60" height="30" as="geometry" />
        </mxCell>
        <mxCell id="XUyzPE99I3TZ6f0oDW-p-1" value="Newtonian Convex Lens " style="text;html=1;strokeColor=none;fillColor=none;align=center;verticalAlign=middle;whiteSpace=wrap;rounded=0;fontStyle=1" vertex="1" parent="1">
          <mxGeometry x="110" y="41" width="170" height="30" as="geometry" />
        </mxCell>
      </root>
    </mxGraphModel>
  </diagram>
</mxfile>
